<?xml version="1.0" encoding="UTF-8" standalone="no"?>
<svg
   xmlns:dc="http://purl.org/dc/elements/1.1/"
   xmlns:cc="http://creativecommons.org/ns#"
   xmlns:rdf="http://www.w3.org/1999/02/22-rdf-syntax-ns#"
   xmlns:svg="http://www.w3.org/2000/svg"
   xmlns="http://www.w3.org/2000/svg"
   xmlns:sodipodi="http://sodipodi.sourceforge.net/DTD/sodipodi-0.dtd"
   xmlns:inkscape="http://www.inkscape.org/namespaces/inkscape"
   sodipodi:docname="logo_ws.svg"
   inkscape:version="1.0.2 (e86c870879, 2021-01-15)"
   id="svg1055"
   version="1.1"
   viewBox="0 0 98.978705 49.185177"
   height="49.185177mm"
   width="98.978706mm">
  <defs
     id="defs1049" />
  <sodipodi:namedview
     id="base"
     pagecolor="#ffffff"
     bordercolor="#666666"
     borderopacity="1.0"
     inkscape:pageopacity="0.0"
     inkscape:pageshadow="2"
     inkscape:zoom="1.4142136"
     inkscape:cx="101.33663"
     inkscape:cy="56.735379"
     inkscape:document-units="mm"
     inkscape:current-layer="g2390"
     showgrid="false"
     fit-margin-top="1"
     fit-margin-left="2"
     fit-margin-right="2"
     fit-margin-bottom="1"
     inkscape:window-width="1920"
     inkscape:window-height="983"
     inkscape:window-x="0"
     inkscape:window-y="18"
     inkscape:window-maximized="0"
     inkscape:document-rotation="0"
     inkscape:snap-global="false" />
  <metadata
     id="metadata1052">
    <rdf:RDF>
      <cc:Work
         rdf:about="">
        <dc:format>image/svg+xml</dc:format>
        <dc:type
           rdf:resource="http://purl.org/dc/dcmitype/StillImage" />
        <dc:title />
      </cc:Work>
    </rdf:RDF>
  </metadata>
  <g
     inkscape:label="Layer 1"
     inkscape:groupmode="layer"
     id="layer1"
     transform="translate(-15.037957,-37.306221)">
    <g
       transform="translate(-70.707785,-41.778211)"
       id="g1026">
      <g
         id="g2390">
        <text
           xml:space="preserve"
           style="font-style:normal;font-variant:normal;font-weight:normal;font-stretch:normal;font-size:19.9564px;line-height:1.25;font-family:Garuda;-inkscape-font-specification:Garuda;fill:#000000;fill-opacity:1;stroke:none;stroke-width:0.498909"
           x="131.53572"
           y="96.710281"
           id="text1137"><tspan
             sodipodi:role="line"
             id="tspan1135"
             x="131.53572"
             y="96.710281"
             style="font-style:normal;font-variant:normal;font-weight:normal;font-stretch:normal;font-family:Garuda;-inkscape-font-specification:Garuda;stroke-width:0.498909">Wave</tspan></text>
        <text
           xml:space="preserve"
           style="font-style:normal;font-variant:normal;font-weight:normal;font-stretch:normal;font-size:19.9564px;line-height:1.25;font-family:Garuda;-inkscape-font-specification:Garuda;fill:#000000;fill-opacity:1;stroke:none;stroke-width:0.498909"
           x="133.48596"
           y="114.94439"
           id="text1141"><tspan
             sodipodi:role="line"
             id="tspan1139"
             x="133.48596"
             y="114.94439"
             style="font-style:normal;font-variant:normal;font-weight:normal;font-stretch:normal;font-family:Garuda;-inkscape-font-specification:Garuda;stroke-width:0.498909">State</tspan></text>
        <text
           xml:space="preserve"
           style="font-style:normal;font-variant:normal;font-weight:normal;font-stretch:normal;font-size:6.54925px;line-height:1.25;font-family:Garuda;-inkscape-font-specification:Garuda;fill:#000000;fill-opacity:1;stroke:none;stroke-width:0.155105"
           x="131.87068"
           y="123.56625"
           id="text1145"><tspan
             sodipodi:role="line"
             id="tspan1143"
             x="131.87068"
             y="123.56625"
             style="font-style:normal;font-variant:normal;font-weight:normal;font-stretch:normal;font-family:Garuda;-inkscape-font-specification:Garuda;stroke-width:0.155105">physics modeling</tspan></text>
        <g
           id="g952"
           transform="translate(-0.2138606,0.1061062)">
          <rect
             style="color:#000000;overflow:visible;solid-color:#000000;vector-effect:none;fill:#163d48;fill-opacity:1;stroke:none;stroke-width:5.60048;stroke-linecap:butt;stroke-linejoin:miter;stroke-miterlimit:4;stroke-dasharray:5.60048, 5.60048;stroke-dashoffset:0;stroke-opacity:1"
             id="rect900-1-3"
             width="16.976454"
             height="13.948854"
             x="109.6079"
             y="88.903671" />
          <rect
             style="color:#000000;overflow:visible;opacity:1;solid-color:#000000;vector-effect:none;fill:#522424;fill-opacity:1;stroke:none;stroke-width:5.60048;stroke-linecap:butt;stroke-linejoin:miter;stroke-miterlimit:4;stroke-dasharray:5.60048, 5.60048;stroke-dashoffset:0;stroke-opacity:1"
             id="rect900"
             width="16.5996"
             height="13.948854"
             x="92.539238"
             y="104.40133" />
          <path
             style="color:#000000;overflow:visible;opacity:1;solid-color:#000000;vector-effect:none;fill:#484848;fill-opacity:1;stroke:none;stroke-width:5.60048;stroke-linecap:butt;stroke-linejoin:miter;stroke-miterlimit:4;stroke-dasharray:5.60048, 5.60048;stroke-dashoffset:0;stroke-opacity:1"
             d="M 98.608859,103.5916 C 111.688,67.969409 124.19288,81.746824 121.53769,87.995035 h -6.50543 c 1.56745,-7.162168 -4.90452,-9.987608 -15.281367,15.630805"
             id="path934"
             inkscape:connector-curvature="0"
             sodipodi:nodetypes="cccc" />
          <path
             style="color:#000000;overflow:visible;opacity:1;solid-color:#000000;vector-effect:none;fill:#464646;fill-opacity:1;stroke:none;stroke-width:5.60048;stroke-linecap:butt;stroke-linejoin:miter;stroke-miterlimit:4;stroke-dasharray:5.60048, 5.60048;stroke-dashoffset:0;stroke-opacity:1"
             d="m 118.83805,103.76244 c -13.07914,35.62219 -24.297701,21.84478 -21.642517,15.59657 h 6.505417 c -1.56745,7.16217 3.61822,9.9876 13.99507,-15.63081"
             id="path934-0"
             inkscape:connector-curvature="0"
             sodipodi:nodetypes="cccc" />
          <path
             style="fill:none;stroke:#8e8e8e;stroke-width:1.2;stroke-linecap:butt;stroke-linejoin:bevel;stroke-miterlimit:4;stroke-dasharray:none;stroke-opacity:1"
             d="m 93.866243,85.700788 h -3.933 V 121.5598 h 3.933"
             id="path858" />
          <path
             style="fill:none;stroke:#8e8e8e;stroke-width:1.2;stroke-linecap:butt;stroke-linejoin:bevel;stroke-miterlimit:4;stroke-dasharray:none;stroke-opacity:1"
             d="m 124.82522,85.700788 h 3.933 V 121.5598 h -3.933"
             id="path858-6" />
          <g
             id="g907">
            <path
               style="color:#000000;font-style:normal;font-variant:normal;font-weight:normal;font-stretch:normal;font-size:medium;line-height:normal;font-family:sans-serif;font-variant-ligatures:normal;font-variant-position:normal;font-variant-caps:normal;font-variant-numeric:normal;font-variant-alternates:normal;font-variant-east-asian:normal;font-feature-settings:normal;font-variation-settings:normal;text-indent:0;text-align:start;text-decoration:none;text-decoration-line:none;text-decoration-style:solid;text-decoration-color:#000000;letter-spacing:normal;word-spacing:normal;text-transform:none;writing-mode:lr-tb;direction:ltr;text-orientation:mixed;dominant-baseline:auto;baseline-shift:baseline;text-anchor:start;white-space:normal;shape-padding:0;shape-margin:0;inline-size:0;clip-rule:nonzero;display:inline;overflow:visible;visibility:visible;opacity:0.85;isolation:auto;mix-blend-mode:normal;color-interpolation:sRGB;color-interpolation-filters:linearRGB;solid-color:#000000;solid-opacity:1;vector-effect:none;fill:#ffffff;fill-opacity:1;fill-rule:nonzero;stroke:none;stroke-linecap:butt;stroke-linejoin:round;stroke-miterlimit:4;stroke-dasharray:none;stroke-dashoffset:0;stroke-opacity:1;color-rendering:auto;image-rendering:auto;shape-rendering:auto;text-rendering:auto;enable-background:accumulate;stop-color:#000000;stop-opacity:1"
               d="m 96.533203,105.00977 -0.244141,0.57812 c -0.05636,0.0271 -0.09741,0.05 -0.185546,0.082 -0.586345,0.21323 -1.630426,0.42997 -2.222657,0.70117 -0.151846,0.0696 -0.278826,0.13986 -0.384765,0.27149 -0.10594,0.13163 -0.148167,0.38536 -0.06641,0.54883 0.08176,0.16347 0.202077,0.24525 0.332031,0.32031 0.129954,0.0751 0.281241,0.13701 0.460937,0.19922 0.352377,0.12207 0.78377,0.23739 1.183594,0.35156 0.328399,0.0938 0.583918,0.18273 0.783203,0.26367 -0.08417,0.0457 -0.07658,0.0538 -0.232422,0.10547 -0.331016,0.10984 -0.762435,0.22504 -1.166015,0.3418 -0.40358,0.11675 -0.770022,0.22433 -1.042969,0.375 -0.116476,0.0642 -0.207368,0.11534 -0.298828,0.20898 -0.04573,0.0468 -0.09708,0.10985 -0.125,0.20899 -0.02792,0.0991 -0.01,0.23001 0.03516,0.31445 0.09025,0.16887 0.194167,0.20493 0.291016,0.25391 0.09685,0.049 0.205471,0.0924 0.333984,0.14257 l 0.216797,-0.55664 c 0.171872,-0.0784 0.442373,-0.17622 0.785156,-0.27539 0.393173,-0.11374 0.827728,-0.22893 1.191406,-0.34961 0.370184,-0.1228 0.636418,-0.20099 0.832032,-0.47265 0.09781,-0.13583 0.123024,-0.3953 0.0293,-0.55469 -0.09373,-0.15939 -0.221147,-0.23572 -0.367187,-0.30859 -0.284099,-0.14183 -0.664967,-0.25284 -1.072266,-0.36915 -0.407298,-0.1163 -0.833623,-0.23145 -1.146484,-0.33984 -0.0797,-0.0276 -0.119207,-0.0507 -0.177734,-0.0762 0.452455,-0.18544 1.419666,-0.41254 2.068359,-0.64844 0.171801,-0.0625 0.312637,-0.12437 0.435547,-0.20117 0.12291,-0.0768 0.251711,-0.16764 0.308594,-0.36133 0.05688,-0.19369 -0.0479,-0.412 -0.160157,-0.51758 -0.112258,-0.10557 -0.23875,-0.17017 -0.394531,-0.23632 z"
               id="path1054" />
            <g
               aria-label="t"
               transform="translate(-1.7617678,-6.0817883)"
               id="text1137-3-6"
               style="font-style:italic;font-variant:normal;font-weight:bold;font-stretch:normal;font-size:4.93889px;line-height:1.25;font-family:Fenwick;-inkscape-font-specification:'Fenwick Bold Italic';font-variant-ligatures:normal;font-variant-position:normal;font-variant-caps:normal;font-variant-numeric:normal;font-variant-alternates:normal;font-variant-east-asian:normal;font-feature-settings:normal;text-indent:0;text-align:start;text-decoration:none;text-decoration-line:none;text-decoration-style:solid;text-decoration-color:#000000;letter-spacing:normal;word-spacing:normal;text-transform:none;writing-mode:lr-tb;direction:ltr;text-orientation:mixed;dominant-baseline:auto;baseline-shift:baseline;text-anchor:start;white-space:normal;shape-padding:0;shape-margin:0;inline-size:0;opacity:0.85;vector-effect:none;fill:#ffffff;fill-opacity:1;stroke:none;stroke-width:0.498909;stroke-linecap:butt;stroke-linejoin:miter;stroke-miterlimit:4;stroke-dasharray:none;stroke-dashoffset:0;stroke-opacity:1;stop-color:#000000">
              <path
                 d="m 99.614334,115.87427 -0.153106,0.97296 c -0.01482,0.0889 -0.01976,0.17286 -0.01976,0.23707 0,0.63711 0.449439,0.93345 0.958142,0.93345 0.3803,0 0.57291,-0.16793 0.65193,-0.28152 l -0.22719,-0.55809 c -0.10371,0.13828 -0.242,0.20743 -0.39511,0.20743 -0.19755,0 -0.32102,-0.1136 -0.32102,-0.30127 0,-0.0346 0.005,-0.0543 0.01,-0.0889 l 0.16792,-1.05199 h 0.78035 l 0.16298,-0.56303 h -0.84949 l 0.16791,-1.04704 -0.785274,0.58772 -0.06915,0.45932 h -0.128411 l -0.162983,0.28152 z"
                 style="font-style:italic;font-variant:normal;font-weight:bold;font-stretch:normal;font-size:4.93889px;line-height:1.25;font-family:Fenwick;-inkscape-font-specification:'Fenwick Bold Italic';font-variant-ligatures:normal;font-variant-position:normal;font-variant-caps:normal;font-variant-numeric:normal;font-variant-alternates:normal;font-variant-east-asian:normal;font-feature-settings:normal;text-indent:0;text-align:start;text-decoration:none;text-decoration-line:none;text-decoration-style:solid;text-decoration-color:#000000;letter-spacing:normal;word-spacing:normal;text-transform:none;writing-mode:lr-tb;direction:ltr;text-orientation:mixed;dominant-baseline:auto;baseline-shift:baseline;text-anchor:start;white-space:normal;shape-padding:0;shape-margin:0;inline-size:0;vector-effect:none;fill:#ffffff;fill-opacity:1;stroke:none;stroke-width:0.498909;stroke-linecap:butt;stroke-linejoin:miter;stroke-miterlimit:4;stroke-dasharray:none;stroke-dashoffset:0;stroke-opacity:1;stop-color:#000000;stop-opacity:1"
                 id="path887" />
            </g>
            <g
               aria-label="a"
               transform="translate(0.87883384,-4.2509611)"
               id="text1137-3-6-3"
               style="font-style:italic;font-variant:normal;font-weight:bold;font-stretch:normal;font-size:4.93889px;line-height:1.25;font-family:Fenwick;-inkscape-font-specification:'Fenwick Bold Italic';font-variant-ligatures:normal;font-variant-position:normal;font-variant-caps:normal;font-variant-numeric:normal;font-variant-alternates:normal;font-variant-east-asian:normal;font-feature-settings:normal;text-indent:0;text-align:start;text-decoration:none;text-decoration-line:none;text-decoration-style:solid;text-decoration-color:#000000;letter-spacing:normal;word-spacing:normal;text-transform:none;writing-mode:lr-tb;direction:ltr;text-orientation:mixed;dominant-baseline:auto;baseline-shift:baseline;text-anchor:start;white-space:normal;shape-padding:0;shape-margin:0;inline-size:0;opacity:0.85;vector-effect:none;fill:#ffffff;fill-opacity:1;stroke:none;stroke-width:0.498909;stroke-linecap:butt;stroke-linejoin:miter;stroke-miterlimit:4;stroke-dasharray:none;stroke-dashoffset:0;stroke-opacity:1;stop-color:#000000">
              <path
                 d="m 100.63668,115.32111 c -0.62723,0 -0.918629,0.30621 -1.007529,0.50377 l 0.365477,0.41487 c 0.113592,-0.16299 0.301272,-0.31115 0.612422,-0.31115 0.23213,0 0.37536,0.084 0.37536,0.2667 0,0.0346 -0.005,0.0593 -0.01,0.0988 -0.27164,0.22719 -1.649591,0.01 -1.649591,0.94827 0,0.4692 0.345723,0.78528 0.923571,0.78528 0.37536,0 0.60749,-0.13335 0.73096,-0.31608 0.0494,0.16298 0.242,0.29633 0.54821,0.29633 l 0.15805,-0.41487 c -0.15805,0 -0.25188,-0.079 -0.25188,-0.21731 0,-0.01 0,-0.0198 0.005,-0.0395 l 0.14323,-0.87912 c 0.0148,-0.084 0.0198,-0.1778 0.0198,-0.24695 0,-0.6223 -0.3803,-0.889 -0.96309,-0.889 z m -0.31115,2.09409 c -0.27163,0 -0.355596,-0.084 -0.355596,-0.23706 0,-0.40993 0.592666,-0.23213 0.928516,-0.42475 l -0.0642,0.40005 c -0.0889,0.19756 -0.2667,0.26176 -0.50871,0.26176 z"
                 style="font-style:italic;font-variant:normal;font-weight:bold;font-stretch:normal;font-size:4.93889px;line-height:1.25;font-family:Fenwick;-inkscape-font-specification:'Fenwick Bold Italic';font-variant-ligatures:normal;font-variant-position:normal;font-variant-caps:normal;font-variant-numeric:normal;font-variant-alternates:normal;font-variant-east-asian:normal;font-feature-settings:normal;text-indent:0;text-align:start;text-decoration:none;text-decoration-line:none;text-decoration-style:solid;text-decoration-color:#000000;letter-spacing:normal;word-spacing:normal;text-transform:none;writing-mode:lr-tb;direction:ltr;text-orientation:mixed;dominant-baseline:auto;baseline-shift:baseline;text-anchor:start;white-space:normal;shape-padding:0;shape-margin:0;inline-size:0;vector-effect:none;fill:#ffffff;fill-opacity:1;stroke:none;stroke-width:0.498909;stroke-linecap:butt;stroke-linejoin:miter;stroke-miterlimit:4;stroke-dasharray:none;stroke-dashoffset:0;stroke-opacity:1;stop-color:#000000;stop-opacity:1"
                 id="path884" />
            </g>
            <g
               aria-label="t"
               transform="translate(4.1815406,-1.7409732)"
               id="text1137-3-6-7"
               style="font-style:italic;font-variant:normal;font-weight:bold;font-stretch:normal;font-size:4.93889px;line-height:1.25;font-family:Fenwick;-inkscape-font-specification:'Fenwick Bold Italic';font-variant-ligatures:normal;font-variant-position:normal;font-variant-caps:normal;font-variant-numeric:normal;font-variant-alternates:normal;font-variant-east-asian:normal;font-feature-settings:normal;text-indent:0;text-align:start;text-decoration:none;text-decoration-line:none;text-decoration-style:solid;text-decoration-color:#000000;letter-spacing:normal;word-spacing:normal;text-transform:none;writing-mode:lr-tb;direction:ltr;text-orientation:mixed;dominant-baseline:auto;baseline-shift:baseline;text-anchor:start;white-space:normal;shape-padding:0;shape-margin:0;inline-size:0;opacity:0.85;vector-effect:none;fill:#ffffff;fill-opacity:1;stroke:none;stroke-width:0.498909;stroke-linecap:butt;stroke-linejoin:miter;stroke-miterlimit:4;stroke-dasharray:none;stroke-dashoffset:0;stroke-opacity:1;stop-color:#000000">
              <path
                 d="m 99.614334,115.87427 -0.153106,0.97296 c -0.01482,0.0889 -0.01976,0.17286 -0.01976,0.23707 0,0.63711 0.449439,0.93345 0.958142,0.93345 0.3803,0 0.57291,-0.16793 0.65193,-0.28152 l -0.22719,-0.55809 c -0.10371,0.13828 -0.242,0.20743 -0.39511,0.20743 -0.19755,0 -0.32102,-0.1136 -0.32102,-0.30127 0,-0.0346 0.005,-0.0543 0.01,-0.0889 l 0.16792,-1.05199 h 0.78035 l 0.16298,-0.56303 h -0.84949 l 0.16791,-1.04704 -0.785274,0.58772 -0.06915,0.45932 h -0.128411 l -0.162983,0.28152 z"
                 style="font-style:italic;font-variant:normal;font-weight:bold;font-stretch:normal;font-size:4.93889px;line-height:1.25;font-family:Fenwick;-inkscape-font-specification:'Fenwick Bold Italic';font-variant-ligatures:normal;font-variant-position:normal;font-variant-caps:normal;font-variant-numeric:normal;font-variant-alternates:normal;font-variant-east-asian:normal;font-feature-settings:normal;text-indent:0;text-align:start;text-decoration:none;text-decoration-line:none;text-decoration-style:solid;text-decoration-color:#000000;letter-spacing:normal;word-spacing:normal;text-transform:none;writing-mode:lr-tb;direction:ltr;text-orientation:mixed;dominant-baseline:auto;baseline-shift:baseline;text-anchor:start;white-space:normal;shape-padding:0;shape-margin:0;inline-size:0;vector-effect:none;fill:#ffffff;fill-opacity:1;stroke:none;stroke-width:0.498909;stroke-linecap:butt;stroke-linejoin:miter;stroke-miterlimit:4;stroke-dasharray:none;stroke-dashoffset:0;stroke-opacity:1;stop-color:#000000;stop-opacity:1"
                 id="path890" />
            </g>
            <g
               aria-label="e"
               transform="translate(6.7836583,-0.2117424)"
               id="text1137-3-6-35"
               style="font-style:italic;font-variant:normal;font-weight:bold;font-stretch:normal;font-size:4.93889px;line-height:1.25;font-family:Fenwick;-inkscape-font-specification:'Fenwick Bold Italic';font-variant-ligatures:normal;font-variant-position:normal;font-variant-caps:normal;font-variant-numeric:normal;font-variant-alternates:normal;font-variant-east-asian:normal;font-feature-settings:normal;text-indent:0;text-align:start;text-decoration:none;text-decoration-line:none;text-decoration-style:solid;text-decoration-color:#000000;letter-spacing:normal;word-spacing:normal;text-transform:none;writing-mode:lr-tb;direction:ltr;text-orientation:mixed;dominant-baseline:auto;baseline-shift:baseline;text-anchor:start;white-space:normal;shape-padding:0;shape-margin:0;inline-size:0;opacity:0.85;vector-effect:none;fill:#ffffff;fill-opacity:1;stroke:none;stroke-width:0.498909;stroke-linecap:butt;stroke-linejoin:miter;stroke-miterlimit:4;stroke-dasharray:none;stroke-dashoffset:0;stroke-opacity:1;stop-color:#000000">
              <path
                 d="m 100.61693,115.32605 c -0.800102,0 -1.293991,0.60255 -1.293991,1.46191 0,0.76059 0.390173,1.22979 1.106311,1.22979 0.40499,0 0.81986,-0.14817 1.11619,-0.56304 l -0.47907,-0.3309 c -0.14323,0.1531 -0.30127,0.26176 -0.55316,0.26176 -0.3309,0 -0.563032,-0.18274 -0.563032,-0.50377 h 1.224842 c 0.29634,0 0.54822,-0.0691 0.54822,-0.53834 0,-0.66181 -0.49389,-1.01741 -1.10631,-1.01741 z m -0.0247,0.59761 c 0.25683,0 0.47908,0.16792 0.53834,0.47413 h -1.12112 c 0.0889,-0.30621 0.32596,-0.47413 0.58278,-0.47413 z"
                 style="font-style:italic;font-variant:normal;font-weight:bold;font-stretch:normal;font-size:4.93889px;line-height:1.25;font-family:Fenwick;-inkscape-font-specification:'Fenwick Bold Italic';font-variant-ligatures:normal;font-variant-position:normal;font-variant-caps:normal;font-variant-numeric:normal;font-variant-alternates:normal;font-variant-east-asian:normal;font-feature-settings:normal;text-indent:0;text-align:start;text-decoration:none;text-decoration-line:none;text-decoration-style:solid;text-decoration-color:#000000;letter-spacing:normal;word-spacing:normal;text-transform:none;writing-mode:lr-tb;direction:ltr;text-orientation:mixed;dominant-baseline:auto;baseline-shift:baseline;text-anchor:start;white-space:normal;shape-padding:0;shape-margin:0;inline-size:0;vector-effect:none;fill:#ffffff;fill-opacity:1;stroke:none;stroke-width:0.498909;stroke-linecap:butt;stroke-linejoin:miter;stroke-miterlimit:4;stroke-dasharray:none;stroke-dashoffset:0;stroke-opacity:1;stop-color:#000000;stop-opacity:1"
                 id="path893" />
            </g>
          </g>
          <g
             aria-label="e"
             transform="translate(24.221608,7.2230487)"
             id="text1137-3-2"
             style="font-style:italic;font-variant:normal;font-weight:bold;font-stretch:normal;font-size:4.93889px;line-height:1.25;font-family:Fenwick;-inkscape-font-specification:'Fenwick Bold Italic';font-variant-ligatures:normal;font-variant-position:normal;font-variant-caps:normal;font-variant-numeric:normal;font-variant-alternates:normal;font-variant-east-asian:normal;font-feature-settings:normal;text-indent:0;text-align:start;text-decoration:none;text-decoration-line:none;text-decoration-style:solid;text-decoration-color:#000000;letter-spacing:normal;word-spacing:normal;text-transform:none;writing-mode:lr-tb;direction:ltr;text-orientation:mixed;dominant-baseline:auto;baseline-shift:baseline;text-anchor:start;white-space:normal;shape-padding:0;shape-margin:0;inline-size:0;opacity:0.85;vector-effect:none;fill:#ffffff;fill-opacity:1;stroke:none;stroke-width:0.498909;stroke-linecap:butt;stroke-linejoin:miter;stroke-miterlimit:4;stroke-dasharray:none;stroke-dashoffset:0;stroke-opacity:1;stop-color:#000000">
            <path
               d="m 100.23753,92.10583 c -0.800096,0 -1.293985,0.602544 -1.293985,1.461911 0,0.760589 0.390172,1.229784 1.106315,1.229784 0.40499,0 0.81985,-0.148167 1.11619,-0.563034 l -0.47908,-0.330905 c -0.14322,0.153105 -0.30127,0.261761 -0.55315,0.261761 -0.330908,0 -0.563036,-0.182739 -0.563036,-0.503767 h 1.224846 c 0.29633,0 0.54822,-0.06914 0.54822,-0.538339 0,-0.661811 -0.49389,-1.017411 -1.10632,-1.017411 z m -0.0247,0.597605 c 0.25682,0 0.47907,0.167923 0.53834,0.474134 h -1.121129 c 0.0889,-0.306211 0.325966,-0.474134 0.582789,-0.474134 z"
               style="font-style:italic;font-variant:normal;font-weight:bold;font-stretch:normal;font-size:4.93889px;line-height:1.25;font-family:Fenwick;-inkscape-font-specification:'Fenwick Bold Italic';font-variant-ligatures:normal;font-variant-position:normal;font-variant-caps:normal;font-variant-numeric:normal;font-variant-alternates:normal;font-variant-east-asian:normal;font-feature-settings:normal;text-indent:0;text-align:start;text-decoration:none;text-decoration-line:none;text-decoration-style:solid;text-decoration-color:#000000;letter-spacing:normal;word-spacing:normal;text-transform:none;writing-mode:lr-tb;direction:ltr;text-orientation:mixed;dominant-baseline:auto;baseline-shift:baseline;text-anchor:start;white-space:normal;shape-padding:0;shape-margin:0;inline-size:0;vector-effect:none;fill:#ffffff;fill-opacity:1;stroke:none;stroke-width:0.498909;stroke-linecap:butt;stroke-linejoin:miter;stroke-miterlimit:4;stroke-dasharray:none;stroke-dashoffset:0;stroke-opacity:1;stop-color:#000000;stop-opacity:1"
               id="path902" />
          </g>
          <path
             style="color:#000000;font-style:normal;font-variant:normal;font-weight:normal;font-stretch:normal;font-size:medium;line-height:normal;font-family:sans-serif;font-variant-ligatures:normal;font-variant-position:normal;font-variant-caps:normal;font-variant-numeric:normal;font-variant-alternates:normal;font-variant-east-asian:normal;font-feature-settings:normal;font-variation-settings:normal;text-indent:0;text-align:start;text-decoration:none;text-decoration-line:none;text-decoration-style:solid;text-decoration-color:#000000;letter-spacing:normal;word-spacing:normal;text-transform:none;writing-mode:lr-tb;direction:ltr;text-orientation:mixed;dominant-baseline:auto;baseline-shift:baseline;text-anchor:start;white-space:normal;shape-padding:0;shape-margin:0;inline-size:0;clip-rule:nonzero;display:inline;overflow:visible;visibility:visible;opacity:0.85;isolation:auto;mix-blend-mode:normal;color-interpolation:sRGB;color-interpolation-filters:linearRGB;solid-color:#000000;solid-opacity:1;vector-effect:none;fill:#ffffff;fill-opacity:1;fill-rule:nonzero;stroke:none;stroke-linecap:butt;stroke-linejoin:round;stroke-miterlimit:4;stroke-dasharray:none;stroke-dashoffset:0;stroke-opacity:1;color-rendering:auto;image-rendering:auto;shape-rendering:auto;text-rendering:auto;enable-background:accumulate;stop-color:#000000;stop-opacity:1"
             d="m 113.49414,89.78125 c -0.13193,-1.57e-4 -0.24652,0.06265 -0.32031,0.126953 -0.0738,0.0643 -0.12137,0.132561 -0.16406,0.207031 -0.0854,0.148942 -0.15027,0.327255 -0.21485,0.552735 -0.12611,0.440387 -0.24631,0.9976 -0.36523,1.482422 -0.0453,0.184795 -0.0892,0.338962 -0.13281,0.488281 -0.0872,-0.270099 -0.17753,-0.575209 -0.27149,-0.980469 -0.11757,-0.507126 -0.16856,-0.900045 -0.30078,-1.234375 -0.0661,-0.167165 -0.16259,-0.332236 -0.32227,-0.451172 -0.15967,-0.118936 -0.365,-0.166154 -0.56836,-0.160156 l 0.0195,0.699219 c 0.0958,-0.0028 0.11454,0.01128 0.13086,0.02344 0.0163,0.01215 0.0488,0.04773 0.0879,0.146485 0.0781,0.197504 0.14779,0.601276 0.27148,1.134765 0.12167,0.524788 0.23977,1.002188 0.37695,1.347656 0.0686,0.172735 0.11987,0.313522 0.2793,0.449219 0.0797,0.06785 0.22718,0.137864 0.37891,0.111328 0.15173,-0.02653 0.24754,-0.120025 0.30859,-0.201171 0.11628,-0.154535 0.1695,-0.317159 0.23438,-0.519532 0.0649,-0.202372 0.12633,-0.438134 0.1875,-0.6875 0.12233,-0.498731 0.24421,-1.054911 0.35937,-1.457031 0.01,-0.03372 0.0158,-0.03813 0.0254,-0.06836 0.01,0.03032 0.0157,0.03454 0.0254,0.06836 0.11513,0.401463 0.23704,0.958423 0.35938,1.457031 0.0612,0.249305 0.12264,0.483061 0.1875,0.685547 0.0648,0.202486 0.11689,0.365104 0.23242,0.519531 0.0608,0.08129 0.15873,0.175933 0.31055,0.203125 0.15181,0.02719 0.29896,-0.04144 0.3789,-0.109375 0.15989,-0.135863 0.21072,-0.278318 0.2793,-0.451172 0.13716,-0.345706 0.25529,-0.822918 0.37695,-1.347656 0.11741,-0.506402 0.24128,-0.87966 0.35742,-1.08789 0.11614,-0.208231 0.15929,-0.217329 0.21875,-0.216797 l 0.006,-0.699219 c -0.36008,-0.0032 -0.65738,0.254089 -0.83594,0.574219 -0.17855,0.320129 -0.30387,0.737271 -0.42773,1.271484 -0.094,0.405299 -0.18426,0.71012 -0.27148,0.980469 -0.0438,-0.149819 -0.0873,-0.304769 -0.13282,-0.490234 -0.11894,-0.484774 -0.23909,-1.042563 -0.36523,-1.482422 -0.0646,-0.225169 -0.12953,-0.401912 -0.21484,-0.550782 -0.0427,-0.07443 -0.0904,-0.142732 -0.16407,-0.207031 -0.0736,-0.0643 -0.18837,-0.126796 -0.32031,-0.126953 z"
             id="path936-7" />
          <g
             aria-label="a"
             transform="translate(17.523488,1.7600597)"
             id="text1137-3"
             style="font-style:italic;font-variant:normal;font-weight:bold;font-stretch:normal;font-size:4.93889px;line-height:1.25;font-family:Fenwick;-inkscape-font-specification:'Fenwick Bold Italic';font-variant-ligatures:normal;font-variant-position:normal;font-variant-caps:normal;font-variant-numeric:normal;font-variant-alternates:normal;font-variant-east-asian:normal;font-feature-settings:normal;text-indent:0;text-align:start;text-decoration:none;text-decoration-line:none;text-decoration-style:solid;text-decoration-color:#000000;letter-spacing:normal;word-spacing:normal;text-transform:none;writing-mode:lr-tb;direction:ltr;text-orientation:mixed;dominant-baseline:auto;baseline-shift:baseline;text-anchor:start;white-space:normal;shape-padding:0;shape-margin:0;inline-size:0;opacity:0.85;vector-effect:none;fill:#ffffff;fill-opacity:1;stroke:none;stroke-width:0.498909;stroke-linecap:butt;stroke-linejoin:miter;stroke-miterlimit:4;stroke-dasharray:none;stroke-dashoffset:0;stroke-opacity:1;stop-color:#000000">
            <path
               d="m 100.25729,92.100891 c -0.627239,0 -0.918634,0.306211 -1.007534,0.503767 l 0.365478,0.414866 c 0.113594,-0.162983 0.301272,-0.31115 0.612426,-0.31115 0.23212,0 0.37535,0.08396 0.37535,0.2667 0,0.03457 -0.005,0.05927 -0.01,0.09878 -0.27163,0.227189 -1.649585,0.0099 -1.649585,0.948267 0,0.469194 0.345722,0.785283 0.923572,0.785283 0.375353,0 0.607483,-0.13335 0.730953,-0.316089 0.0494,0.162984 0.24201,0.296334 0.54822,0.296334 l 0.15804,-0.414867 c -0.15804,0 -0.25188,-0.07902 -0.25188,-0.217311 0,-0.0099 0,-0.01976 0.005,-0.03951 l 0.14323,-0.879123 c 0.0148,-0.08396 0.0198,-0.1778 0.0198,-0.246944 0,-0.6223 -0.38029,-0.889 -0.96308,-0.889 z m -0.31115,2.094089 c -0.271639,0 -0.355601,-0.08396 -0.355601,-0.237067 0,-0.409928 0.592671,-0.232127 0.928511,-0.424744 l -0.0642,0.40005 c -0.0889,0.197556 -0.2667,0.261761 -0.50871,0.261761 z"
               style="font-style:italic;font-variant:normal;font-weight:bold;font-stretch:normal;font-size:4.93889px;line-height:1.25;font-family:Fenwick;-inkscape-font-specification:'Fenwick Bold Italic';font-variant-ligatures:normal;font-variant-position:normal;font-variant-caps:normal;font-variant-numeric:normal;font-variant-alternates:normal;font-variant-east-asian:normal;font-feature-settings:normal;text-indent:0;text-align:start;text-decoration:none;text-decoration-line:none;text-decoration-style:solid;text-decoration-color:#000000;letter-spacing:normal;word-spacing:normal;text-transform:none;writing-mode:lr-tb;direction:ltr;text-orientation:mixed;dominant-baseline:auto;baseline-shift:baseline;text-anchor:start;white-space:normal;shape-padding:0;shape-margin:0;inline-size:0;vector-effect:none;fill:#ffffff;fill-opacity:1;stroke:none;stroke-width:0.498909;stroke-linecap:butt;stroke-linejoin:miter;stroke-miterlimit:4;stroke-dasharray:none;stroke-dashoffset:0;stroke-opacity:1;stop-color:#000000;stop-opacity:1"
               id="path896" />
          </g>
          <g
             aria-label="v"
             transform="translate(21.026428,4.7360991)"
             id="text1137-3-9"
             style="font-style:italic;font-variant:normal;font-weight:bold;font-stretch:normal;font-size:4.93889px;line-height:1.25;font-family:Fenwick;-inkscape-font-specification:'Fenwick Bold Italic';font-variant-ligatures:normal;font-variant-position:normal;font-variant-caps:normal;font-variant-numeric:normal;font-variant-alternates:normal;font-variant-east-asian:normal;font-feature-settings:normal;text-indent:0;text-align:start;text-decoration:none;text-decoration-line:none;text-decoration-style:solid;text-decoration-color:#000000;letter-spacing:normal;word-spacing:normal;text-transform:none;writing-mode:lr-tb;direction:ltr;text-orientation:mixed;dominant-baseline:auto;baseline-shift:baseline;text-anchor:start;white-space:normal;shape-padding:0;shape-margin:0;inline-size:0;opacity:0.85;vector-effect:none;fill:#ffffff;fill-opacity:1;stroke:none;stroke-width:0.498909;stroke-linecap:butt;stroke-linejoin:miter;stroke-miterlimit:4;stroke-dasharray:none;stroke-dashoffset:0;stroke-opacity:1;stop-color:#000000">
            <path
               d="m 99.738706,92.160157 h -0.681567 l 0.602545,2.592918 h 0.671686 l 1.36808,-2.592918 h -0.72108 l -0.87912,1.659467 z"
               style="font-style:italic;font-variant:normal;font-weight:bold;font-stretch:normal;font-size:4.93889px;line-height:1.25;font-family:Fenwick;-inkscape-font-specification:'Fenwick Bold Italic';font-variant-ligatures:normal;font-variant-position:normal;font-variant-caps:normal;font-variant-numeric:normal;font-variant-alternates:normal;font-variant-east-asian:normal;font-feature-settings:normal;text-indent:0;text-align:start;text-decoration:none;text-decoration-line:none;text-decoration-style:solid;text-decoration-color:#000000;letter-spacing:normal;word-spacing:normal;text-transform:none;writing-mode:lr-tb;direction:ltr;text-orientation:mixed;dominant-baseline:auto;baseline-shift:baseline;text-anchor:start;white-space:normal;shape-padding:0;shape-margin:0;inline-size:0;vector-effect:none;fill:#ffffff;fill-opacity:1;stroke:none;stroke-width:0.498909;stroke-linecap:butt;stroke-linejoin:miter;stroke-miterlimit:4;stroke-dasharray:none;stroke-dashoffset:0;stroke-opacity:1;stop-color:#000000;stop-opacity:1"
               id="path899" />
          </g>
        </g>
      </g>
    </g>
  </g>
</svg>
