<?xml version="1.0" encoding="UTF-8" standalone="no"?>
<svg
   xmlns:dc="http://purl.org/dc/elements/1.1/"
   xmlns:cc="http://creativecommons.org/ns#"
   xmlns:rdf="http://www.w3.org/1999/02/22-rdf-syntax-ns#"
   xmlns:svg="http://www.w3.org/2000/svg"
   xmlns="http://www.w3.org/2000/svg"
   xmlns:sodipodi="http://sodipodi.sourceforge.net/DTD/sodipodi-0.dtd"
   xmlns:inkscape="http://www.inkscape.org/namespaces/inkscape"
   sodipodi:docname="logo_ws_letters.svg"
   inkscape:version="1.0.2 (e86c870879, 2021-01-15)"
   id="svg1055"
   version="1.1"
   viewBox="0 0 13 6.5000001"
   height="6.5mm"
   width="13mm"
   inkscape:export-filename="/home/mcculler/projects/WSdev/doc/docs/logo/logo_ws_letters.png"
   inkscape:export-xdpi="1563.0769"
   inkscape:export-ydpi="1563.0769">
  <defs
     id="defs1049" />
  <sodipodi:namedview
     id="base"
     pagecolor="#ffffff"
     bordercolor="#666666"
     borderopacity="1.0"
     inkscape:pageopacity="0.0"
     inkscape:pageshadow="2"
     inkscape:zoom="11.313709"
     inkscape:cx="-34.468824"
     inkscape:cy="2.493927"
     inkscape:document-units="mm"
     inkscape:current-layer="g2390"
     showgrid="false"
     fit-margin-top="0"
     fit-margin-left="0"
     fit-margin-right="0"
     fit-margin-bottom="0"
     inkscape:window-width="1920"
     inkscape:window-height="983"
     inkscape:window-x="0"
     inkscape:window-y="18"
     inkscape:window-maximized="0"
     inkscape:document-rotation="0"
     inkscape:snap-global="false"
     inkscape:snap-object-midpoints="true" />
  <metadata
     id="metadata1052">
    <rdf:RDF>
      <cc:Work
         rdf:about="">
        <dc:format>image/svg+xml</dc:format>
        <dc:type
           rdf:resource="http://purl.org/dc/dcmitype/StillImage" />
        <dc:title></dc:title>
      </cc:Work>
    </rdf:RDF>
  </metadata>
  <g
     inkscape:label="Layer 1"
     inkscape:groupmode="layer"
     id="layer1"
     transform="translate(-46.274103,-47.125453)">
    <g
       transform="translate(-70.707785,-41.778211)"
       id="g1026">
      <g
         id="g2390">
        <rect
           style="color:#000000;overflow:visible;solid-color:#000000;vector-effect:none;fill:#163d48;fill-opacity:1;stroke:none;stroke-width:5.60048;stroke-linecap:butt;stroke-linejoin:miter;stroke-miterlimit:4;stroke-dasharray:5.60048, 5.60048;stroke-dashoffset:0;stroke-opacity:1"
           id="rect900-1-3"
           width="6.5"
           height="6.4999995"
           x="123.48189"
           y="88.903664" />
        <rect
           style="color:#000000;overflow:visible;opacity:1;solid-color:#000000;vector-effect:none;fill:#522424;fill-opacity:1;stroke:none;stroke-width:5.60048;stroke-linecap:butt;stroke-linejoin:miter;stroke-miterlimit:4;stroke-dasharray:5.60048, 5.60048;stroke-dashoffset:0;stroke-opacity:1"
           id="rect900"
           width="6.5"
           height="6.5"
           x="116.98189"
           y="88.903664" />
        <text
           xml:space="preserve"
           style="font-style:normal;font-variant:normal;font-weight:normal;font-stretch:normal;font-size:6.54925px;line-height:1.25;font-family:Garuda;-inkscape-font-specification:Garuda;fill:#000000;fill-opacity:1;stroke:none;stroke-width:0.155105"
           x="131.49248"
           y="94.382019"
           id="text1145"><tspan
             sodipodi:role="line"
             id="tspan1143"
             x="131.49248"
             y="94.382019"
             style="font-style:normal;font-variant:normal;font-weight:normal;font-stretch:normal;font-family:Garuda;-inkscape-font-specification:Garuda;stroke-width:0.155105" /></text>
        <text
           xml:space="preserve"
           style="font-style:normal;font-weight:normal;font-size:10.5833px;line-height:1.25;font-family:sans-serif;fill:#000000;fill-opacity:1;stroke:none;stroke-width:0.264583"
           x="99.532959"
           y="115.75879"
           id="text852"><tspan
             sodipodi:role="line"
             id="tspan850"
             x="99.532959"
             y="115.75879"
             style="stroke-width:0.264583" /></text>
        <path
           style="color:#000000;font-style:normal;font-variant:normal;font-weight:normal;font-stretch:normal;font-size:medium;line-height:normal;font-family:sans-serif;font-variant-ligatures:normal;font-variant-position:normal;font-variant-caps:normal;font-variant-numeric:normal;font-variant-alternates:normal;font-variant-east-asian:normal;font-feature-settings:normal;font-variation-settings:normal;text-indent:0;text-align:start;text-decoration:none;text-decoration-line:none;text-decoration-style:solid;text-decoration-color:#000000;letter-spacing:normal;word-spacing:normal;text-transform:none;writing-mode:lr-tb;direction:ltr;text-orientation:mixed;dominant-baseline:auto;baseline-shift:baseline;text-anchor:start;white-space:normal;shape-padding:0;shape-margin:0;inline-size:0;clip-rule:nonzero;display:inline;overflow:visible;visibility:visible;opacity:0.9;isolation:auto;mix-blend-mode:normal;color-interpolation:sRGB;color-interpolation-filters:linearRGB;solid-color:#000000;solid-opacity:1;vector-effect:none;fill:#ffffff;fill-opacity:1;fill-rule:nonzero;stroke:none;stroke-linecap:butt;stroke-linejoin:round;stroke-miterlimit:4;stroke-dasharray:none;stroke-dashoffset:0;stroke-opacity:1;color-rendering:auto;image-rendering:auto;shape-rendering:auto;text-rendering:auto;enable-background:accumulate;stop-color:#000000;stop-opacity:1"
           d="m 128.05859,89.519531 -0.24414,0.578125 c -0.0564,0.02707 -0.0974,0.04998 -0.18554,0.08203 -0.58635,0.213228 -1.63239,0.42997 -2.22461,0.701171 -0.15185,0.06955 -0.27883,0.139853 -0.38477,0.271485 -0.10594,0.131632 -0.14621,0.385358 -0.0645,0.548828 0.0818,0.16347 0.20208,0.245258 0.33203,0.320312 0.12995,0.07506 0.28124,0.138967 0.46094,0.201172 0.35237,0.122075 0.78377,0.23739 1.18359,0.351563 0.32753,0.09353 0.57995,0.18286 0.7793,0.263672 -0.0841,0.04562 -0.076,0.05226 -0.23047,0.103515 -0.33102,0.109837 -0.76048,0.225044 -1.16406,0.341797 -0.40358,0.116753 -0.77003,0.226281 -1.04297,0.376953 v -0.002 c -0.11648,0.06417 -0.20737,0.115338 -0.29883,0.208985 -0.0457,0.04682 -0.0971,0.109842 -0.125,0.208984 -0.0279,0.09914 -0.01,0.230017 0.0352,0.314453 0.0902,0.168871 0.19416,0.204926 0.29101,0.253906 0.0969,0.04898 0.20352,0.09239 0.33203,0.142578 l 0.21875,-0.55664 c 0.17192,-0.07838 0.44055,-0.174311 0.78321,-0.273438 0.39317,-0.113742 0.82772,-0.230889 1.1914,-0.351562 0.37018,-0.122807 0.63642,-0.200997 0.83203,-0.472657 0.0978,-0.135829 0.12498,-0.395294 0.0312,-0.554687 -0.0937,-0.159393 -0.2231,-0.235715 -0.36914,-0.308594 -0.2841,-0.141824 -0.66496,-0.252833 -1.07226,-0.36914 -0.4073,-0.116308 -0.83363,-0.231459 -1.14649,-0.339844 -0.0803,-0.02778 -0.11896,-0.05052 -0.17773,-0.07617 0.45245,-0.185439 1.41967,-0.410586 2.06836,-0.646484 0.1718,-0.06248 0.31459,-0.124374 0.4375,-0.201172 0.12291,-0.0768 0.24976,-0.169594 0.30664,-0.363281 0.0569,-0.193688 -0.046,-0.412004 -0.15821,-0.517579 -0.11225,-0.105574 -0.23874,-0.170171 -0.39453,-0.236328 z"
           id="path1054" />
        <path
           style="color:#000000;font-style:normal;font-variant:normal;font-weight:normal;font-stretch:normal;font-size:medium;line-height:normal;font-family:sans-serif;font-variant-ligatures:normal;font-variant-position:normal;font-variant-caps:normal;font-variant-numeric:normal;font-variant-alternates:normal;font-variant-east-asian:normal;font-feature-settings:normal;font-variation-settings:normal;text-indent:0;text-align:start;text-decoration:none;text-decoration-line:none;text-decoration-style:solid;text-decoration-color:#000000;letter-spacing:normal;word-spacing:normal;text-transform:none;writing-mode:lr-tb;direction:ltr;text-orientation:mixed;dominant-baseline:auto;baseline-shift:baseline;text-anchor:start;white-space:normal;shape-padding:0;shape-margin:0;inline-size:0;clip-rule:nonzero;display:inline;overflow:visible;visibility:visible;opacity:0.9;isolation:auto;mix-blend-mode:normal;color-interpolation:sRGB;color-interpolation-filters:linearRGB;solid-color:#000000;solid-opacity:1;vector-effect:none;fill:#ffffff;fill-opacity:1;fill-rule:nonzero;stroke:none;stroke-linecap:butt;stroke-linejoin:round;stroke-miterlimit:4;stroke-dasharray:none;stroke-dashoffset:0;stroke-opacity:1;color-rendering:auto;image-rendering:auto;shape-rendering:auto;text-rendering:auto;enable-background:accumulate;stop-color:#000000;stop-opacity:1"
           d="m 120.19727,90.029297 c -0.14137,-1.84e-4 -0.25961,0.06971 -0.33204,0.138672 -0.0724,0.06896 -0.11883,0.141941 -0.16015,0.220703 -0.0826,0.157524 -0.14503,0.347801 -0.20899,0.591797 -0.12531,0.478137 -0.24605,1.086284 -0.36523,1.617187 -0.0444,0.197791 -0.0879,0.363511 -0.13086,0.525391 -0.0873,-0.297394 -0.17867,-0.625055 -0.27148,-1.0625 -0.11804,-0.556319 -0.17024,-0.986502 -0.29883,-1.341797 -0.0643,-0.177647 -0.15367,-0.349237 -0.3125,-0.478516 -0.15884,-0.129278 -0.31911,-0.184446 -0.52743,-0.177734 v 0.699219 c 0.0471,-0.0029 0.0689,0.0075 0.086,0.02148 0.0172,0.01396 0.0548,0.06091 0.0957,0.173828 0.0817,0.225832 0.15022,0.667299 0.27344,1.248047 0.12151,0.572688 0.24003,1.09345 0.375,1.464844 0.0675,0.185697 0.11488,0.332864 0.27149,0.478516 0.0783,0.07282 0.23267,0.153976 0.39453,0.123046 0.16186,-0.03093 0.25401,-0.1338 0.3125,-0.21875 0.11164,-0.162123 0.16429,-0.335781 0.22851,-0.554687 0.0642,-0.218906 0.12646,-0.474188 0.1875,-0.746094 0.12208,-0.543811 0.24147,-1.151291 0.35743,-1.59375 0.009,-0.03334 0.0147,-0.03801 0.0234,-0.06836 0.009,0.03032 0.0147,0.03506 0.0234,0.06836 0.11594,0.441751 0.2373,1.048114 0.35937,1.591797 0.061,0.271842 0.1233,0.529007 0.1875,0.748047 0.0642,0.21904 0.11565,0.390726 0.22657,0.552734 0.0582,0.08508 0.1506,0.189018 0.3125,0.220703 0.16189,0.03169 0.31794,-0.04817 0.39648,-0.121093 0.15708,-0.145845 0.20401,-0.29269 0.27149,-0.478516 0.13495,-0.371651 0.25349,-0.894155 0.375,-1.466797 0.1179,-0.555647 0.24366,-0.96682 0.36328,-1.201172 0.0598,-0.117176 0.11752,-0.187863 0.15234,-0.216797 0.0348,-0.02893 0.0626,-0.02431 0.0626,-0.02539 v -0.699219 c -0.18701,-0.0018 -0.37235,0.07177 -0.51163,0.1875 -0.13927,0.11573 -0.23864,0.264057 -0.32617,0.435547 -0.17507,0.342979 -0.30046,0.79358 -0.42383,1.375 -0.0928,0.437481 -0.1842,0.764837 -0.27148,1.0625 -0.0431,-0.162301 -0.0863,-0.327105 -0.13086,-0.525391 -0.1192,-0.530845 -0.2399,-1.139636 -0.36524,-1.617187 -0.0639,-0.24366 -0.1264,-0.43434 -0.20898,-0.591797 -0.0413,-0.07873 -0.0879,-0.149808 -0.16016,-0.21875 -0.0722,-0.06894 -0.18871,-0.140441 -0.33007,-0.140625 z"
           id="path936-7"
           sodipodi:nodetypes="cccccccccccccscssccsccccsccscccccccccccccccc" />
      </g>
    </g>
  </g>
</svg>
