<?xml version="1.0" encoding="UTF-8" standalone="no"?>
<!-- Created with Inkscape (http://www.inkscape.org/) -->

<svg
   xmlns:dc="http://purl.org/dc/elements/1.1/"
   xmlns:cc="http://creativecommons.org/ns#"
   xmlns:rdf="http://www.w3.org/1999/02/22-rdf-syntax-ns#"
   xmlns:svg="http://www.w3.org/2000/svg"
   xmlns="http://www.w3.org/2000/svg"
   xmlns:sodipodi="http://sodipodi.sourceforge.net/DTD/sodipodi-0.dtd"
   xmlns:inkscape="http://www.inkscape.org/namespaces/inkscape"
   width="100.07131mm"
   height="47.185177mm"
   viewBox="0 0 100.07131 47.185177"
   version="1.1"
   id="svg8"
   inkscape:version="0.92.4 (unknown)"
   sodipodi:docname="logo_pencil.svg">
  <defs
     id="defs2" />
  <sodipodi:namedview
     id="base"
     pagecolor="#ffffff"
     bordercolor="#666666"
     borderopacity="1.0"
     inkscape:pageopacity="0.0"
     inkscape:pageshadow="2"
     inkscape:zoom="0.7"
     inkscape:cx="52.845024"
     inkscape:cy="346.13524"
     inkscape:document-units="mm"
     inkscape:current-layer="layer1"
     showgrid="false"
     showguides="false"
     inkscape:window-width="1920"
     inkscape:window-height="969"
     inkscape:window-x="4480"
     inkscape:window-y="18"
     inkscape:window-maximized="0"
     fit-margin-top="0"
     fit-margin-left="0"
     fit-margin-right="0"
     fit-margin-bottom="0" />
  <metadata
     id="metadata5">
    <rdf:RDF>
      <cc:Work
         rdf:about="">
        <dc:format>image/svg+xml</dc:format>
        <dc:type
           rdf:resource="http://purl.org/dc/dcmitype/StillImage" />
        <dc:title></dc:title>
      </cc:Work>
    </rdf:RDF>
  </metadata>
  <g
     inkscape:label="Layer 1"
     inkscape:groupmode="layer"
     id="layer1"
     transform="translate(-5.9284729,-60.573756)">
    <g
       id="g1026"
       transform="translate(-84.457171,-19.510676)">
      <polygon
         transform="matrix(0.3,0,0,-0.3,-50.005356,222.75)"
         style="font-style:normal;font-variant:normal;font-weight:normal;font-stretch:normal;letter-spacing:normal;word-spacing:normal;text-anchor:start;fill:black;fill-opacity:1;fill-rule:evenodd;stroke:black;stroke-width:0;stroke-linecap:butt;stroke-linejoin:miter;stroke-miterlimit:10.43299961;stroke-dasharray:none;stroke-dashoffset:0;stroke-opacity:1"
         points="481.08,336.43 481.08,339.18 470.72,339.18 470.72,453.21 481.08,453.21 481.08,455.96 467.97,455.96 467.97,336.43 "
         id="polygon826" />
      <polygon
         transform="matrix(0.3,0,0,-0.3,-53.728422,222.75)"
         style="font-style:normal;font-variant:normal;font-weight:normal;font-stretch:normal;letter-spacing:normal;word-spacing:normal;text-anchor:start;fill:black;fill-opacity:1;fill-rule:evenodd;stroke:black;stroke-width:0;stroke-linecap:butt;stroke-linejoin:miter;stroke-miterlimit:10.43299961;stroke-dasharray:none;stroke-dashoffset:0;stroke-opacity:1"
         points="592.58,339.18 582.22,339.18 582.22,336.43 595.32,336.43 595.32,455.96 582.22,455.96 582.22,453.21 592.58,453.21 "
         id="polygon836" />
      <rect
         y="88.903671"
         x="109.0827"
         height="13.948854"
         width="12.024959"
         id="rect900"
         style="color:black;overflow:visible;opacity:1;solid-color:black;vector-effect:none;fill:#4d1f1f;fill-opacity:1;stroke:none;stroke-width:5.07999897;stroke-linecap:butt;stroke-linejoin:miter;stroke-miterlimit:4;stroke-dasharray:5.07999952, 5.07999952;stroke-dashoffset:0;stroke-opacity:1" />
      <rect
         y="104.40133"
         x="93.827271"
         height="13.948854"
         width="11.835969"
         id="rect900-1"
         style="color:black;overflow:visible;opacity:1;solid-color:black;vector-effect:none;fill:#155060;fill-opacity:1;stroke:none;stroke-width:5.07999897;stroke-linecap:butt;stroke-linejoin:miter;stroke-miterlimit:4;stroke-dasharray:5.0799996, 5.0799996;stroke-dashoffset:0;stroke-opacity:1" />
      <path
         sodipodi:nodetypes="cccc"
         inkscape:connector-curvature="0"
         id="path934"
         d="M 99.067557,103.5916 C 109.82866,67.969409 120.11727,81.746824 117.93267,87.995035 h -5.35246 c 1.28965,-7.162168 -4.03528,-9.987608 -12.57302,15.630805"
         style="color:black;overflow:visible;opacity:1;solid-color:black;vector-effect:none;fill:#6e6e6e;fill-opacity:1;stroke:none;stroke-width:5.07999945;stroke-linecap:butt;stroke-linejoin:miter;stroke-miterlimit:4;stroke-dasharray:5.07999963, 5.07999963;stroke-dashoffset:0;stroke-opacity:1" />
      <path
         sodipodi:nodetypes="cccc"
         inkscape:connector-curvature="0"
         id="path934-0"
         d="m 115.27611,103.76244 c -10.7611,35.62219 -19.991378,21.84478 -17.806778,15.59657 h 5.352458 c -1.28965,7.16217 2.97695,9.9876 11.51469,-15.63081"
         style="color:black;overflow:visible;opacity:1;solid-color:black;vector-effect:none;fill:#6e6e6e;fill-opacity:1;stroke:none;stroke-width:5.07999992;stroke-linecap:butt;stroke-linejoin:miter;stroke-miterlimit:4;stroke-dasharray:5.07999969, 5.07999969;stroke-dashoffset:0;stroke-opacity:1" />
    </g>
    <g
       id="g1713"
       transform="translate(-2.8717797,-1.7451226)">
      <polygon
         transform="matrix(0.30000001,0,0,-0.30000001,-65.094236,204.98445)"
         style="font-style:normal;font-variant:normal;font-weight:normal;font-stretch:normal;letter-spacing:normal;word-spacing:normal;text-anchor:start;fill:black;fill-opacity:1;fill-rule:evenodd;stroke:black;stroke-width:0;stroke-linecap:butt;stroke-linejoin:miter;stroke-miterlimit:10.43299961;stroke-dasharray:none;stroke-dashoffset:0;stroke-opacity:1"
         points="481.08,339.18 470.72,339.18 470.72,453.21 481.08,453.21 481.08,455.96 467.97,455.96 467.97,336.43 481.08,336.43 "
         id="polygon826-9" />
      <polygon
         transform="matrix(0.30000001,0,0,-0.30000001,-69.724442,204.98445)"
         style="font-style:normal;font-variant:normal;font-weight:normal;font-stretch:normal;letter-spacing:normal;word-spacing:normal;text-anchor:start;fill:black;fill-opacity:1;fill-rule:evenodd;stroke:black;stroke-width:0;stroke-linecap:butt;stroke-linejoin:miter;stroke-miterlimit:10.43299961;stroke-dasharray:none;stroke-dashoffset:0;stroke-opacity:1"
         points="592.58,453.21 592.58,339.18 582.22,339.18 582.22,336.43 595.32,336.43 595.32,455.96 582.22,455.96 582.22,453.21 "
         id="polygon836-3" />
      <g
         transform="matrix(1,0,0,-1,3.7384032e-7,208.10862)"
         id="g1032"
         style="stroke:none">
        <rect
           style="color:black;overflow:visible;opacity:1;solid-color:black;vector-effect:none;fill:#bcbcbc;fill-opacity:1;stroke:none;stroke-width:0.70555556;stroke-linecap:butt;stroke-linejoin:miter;stroke-miterlimit:4;stroke-dasharray:none;stroke-dashoffset:0;stroke-opacity:1"
           id="rect900-6"
           width="12.024959"
           height="13.948854"
           x="93.218971"
           y="107.42384" />
        <rect
           style="color:black;overflow:visible;opacity:1;solid-color:black;vector-effect:none;fill:#383838;fill-opacity:1;stroke:none;stroke-width:5.07999897;stroke-linecap:butt;stroke-linejoin:miter;stroke-miterlimit:4;stroke-dasharray:5.07999966, 5.07999966;stroke-dashoffset:0;stroke-opacity:1"
           id="rect900-1-0"
           width="11.835969"
           height="13.948854"
           x="78.492706"
           y="122.9215" />
      </g>
    </g>
    <g
       id="g1700"
       transform="matrix(1.4317066,0,0,1.4317066,-78.91597,-55.169585)"
       style="stroke-width:0.69846714">
      <g
         word-spacing="normal"
         letter-spacing="normal"
         font-size-adjust="none"
         font-stretch="normal"
         font-weight="normal"
         font-variant="normal"
         font-style="normal"
         stroke-miterlimit="10.433"
         xml:space="preserve"
         transform="matrix(0.3,0,0,-0.3,-52.5,222.75)"
         id="content"
         style="font-style:normal;font-variant:normal;font-weight:normal;font-stretch:normal;letter-spacing:normal;word-spacing:normal;text-anchor:start;fill:none;fill-opacity:1;fill-rule:evenodd;stroke:black;stroke-width:0.69846714;stroke-linecap:butt;stroke-linejoin:miter;stroke-miterlimit:10.43299961;stroke-dasharray:none;stroke-dashoffset:0;stroke-opacity:1"><path
           id="path1695"
           d="m 488.35,417.65 h 0.16 0.16 l 0.15,0.01 h 0.08 l 0.08,0.01 h 0.07 l 0.08,0.01 0.07,0.01 0.07,0.01 0.07,0.02 0.07,0.02 0.07,0.02 0.06,0.02 0.06,0.02 0.06,0.03 0.05,0.03 0.06,0.04 0.05,0.03 0.04,0.05 0.04,0.04 0.04,0.05 0.02,0.03 0.02,0.03 0.01,0.03 0.02,0.03 0.01,0.03 0.02,0.03 0.01,0.04 0.01,0.03 0.01,0.04 v 0.04 l 0.01,0.04 0.01,0.04 v 0.04 l 0.01,0.04 v 0.05 0.04 c 0,1 -0.91,1 -1.75,1 h -26.96 c -0.84,0 -1.73,0 -1.73,-1 0,-1 0.89,-1 1.73,-1 z"
           inkscape:connector-curvature="0"
           style="fill:black;stroke-width:0" /><path
           id="path1697"
           d="m 512.06,420.75 0.19,-0.5 0.2,-0.51 0.39,-1.05 0.39,-1.08 0.4,-1.1 0.39,-1.1 0.38,-1.09 0.38,-1.07 0.18,-0.53 0.18,-0.51 0.18,-0.5 0.17,-0.49 0.17,-0.47 0.17,-0.45 0.15,-0.44 0.16,-0.42 0.15,-0.39 0.14,-0.37 0.13,-0.35 0.13,-0.32 0.12,-0.29 0.11,-0.26 0.11,-0.23 0.1,-0.2 0.08,-0.16 0.08,-0.12 c 0.8,-1.1 1.3,-1.1 2.64,-1.1 h 1.1 c 0.5,0.05 0.54,0.35 0.54,0.5 0,0.14 -0.09,0.25 -0.25,0.46 -0.48,0.54 -0.79,1.28 -1.14,2.28 l -10.15,28.34 c -1.05,2.89 -3.75,3.55 -6.08,3.55 -0.25,0 -0.91,0 -0.91,-0.55 0,-0.41 0.41,-0.5 0.46,-0.5 1.64,-0.3 1.98,-0.59 3.23,-3.98 l 4.83,-13.55 -13.75,-13.66 c -0.6,-0.59 -0.89,-0.9 -0.89,-1.54 0,-0.85 0.7,-1.44 1.5,-1.44 0.79,0 1.23,0.55 1.64,1.05 z"
           inkscape:connector-curvature="0"
           style="fill:black;stroke-width:0" /></g>    </g>
  </g>
</svg>
